2.5Hzlow3min_grf.mot
version=1
nRows=15
nColumns 19
inDegrees=yes
endheader
time	1_ground_force_vx	1_ground_force_vy	1_ground_force_vz	1_ground_force_px	1_ground_force_py	1_ground_force_pz	1_ground_torque_x	1_ground_torque_y	1_ground_torque_z	2_ground_force_vx	2_ground_force_vy	2_ground_force_vz	2_ground_force_px	2_ground_force_py	2_ground_force_pz	2_ground_torque_x	2_ground_torque_y	2_ground_torque_z
            3.751500	          -28.965167	          840.308735	          -60.754438	           -0.230322	            0.006350	           -0.434799	           -0.132511	            3.844279	           -0.277942	           -2.840129	          702.155870	           54.267860	           -0.266992	            0.005501	           -0.692562	            0.012895	           -3.188085	           -0.246399
            3.752000	          -29.194752	          839.228141	          -60.987797	           -0.230164	            0.006349	           -0.434487	           -0.136094	            3.912142	           -0.284300	           -3.068356	          700.497362	           54.355903	           -0.267141	            0.005500	           -0.692388	            0.013371	           -3.052515	           -0.236863
            3.752500	          -29.836779	          837.966852	          -61.175039	           -0.229861	            0.006348	           -0.434432	           -0.136507	            3.833802	           -0.279883	           -2.931733	          701.602334	           54.500570	           -0.267011	            0.005502	           -0.692638	            0.012554	           -3.004431	           -0.233385
            3.753000	          -30.662142	          835.263917	          -61.459713	           -0.229626	            0.006349	           -0.434647	           -0.137859	            3.755392	           -0.276326	           -3.208782	          700.495850	           54.637531	           -0.267016	            0.005501	           -0.692521	            0.013518	           -2.950983	           -0.230172
            3.753500	          -31.027682	          834.901410	          -61.001797	           -0.229488	            0.006348	           -0.434298	           -0.139309	            3.748571	           -0.273888	           -3.255509	          700.494677	           54.919120	           -0.266797	            0.005502	           -0.692602	            0.013808	           -2.971086	           -0.232935
            3.754000	          -31.394567	          832.558838	          -61.240212	           -0.229235	            0.006349	           -0.434496	           -0.136245	            3.613122	           -0.265769	           -3.342686	          698.653936	           54.631021	           -0.266735	            0.005502	           -0.692391	            0.013863	           -2.897485	           -0.226568
            3.754500	          -31.669718	          830.576679	          -61.431455	           -0.229127	            0.006348	           -0.434392	           -0.136768	            3.586914	           -0.265297	           -3.529942	          698.652088	           54.959597	           -0.266765	            0.005502	           -0.692524	            0.014381	           -2.846276	           -0.223903
            3.755000	          -31.991005	          827.693940	          -61.809873	           -0.228814	            0.006350	           -0.434673	           -0.135930	            3.516876	           -0.262630	           -4.089461	          697.913205	           55.004136	           -0.266605	            0.005503	           -0.692642	            0.015620	           -2.665813	           -0.210099
            3.755500	          -32.356164	          825.888988	          -61.312274	           -0.228666	            0.006349	           -0.434473	           -0.137342	            3.505651	           -0.260252	           -4.083479	          696.255878	           54.998222	           -0.266560	            0.005502	           -0.692387	            0.015120	           -2.578006	           -0.203640
            3.756000	          -32.447932	          824.447435	          -61.455802	           -0.228380	            0.006349	           -0.434389	           -0.140679	            3.574409	           -0.266443	           -4.173774	          695.334228	           55.182689	           -0.266330	            0.005504	           -0.692578	            0.015647	           -2.606657	           -0.206868
            3.756500	          -32.952539	          821.925055	          -61.786367	           -0.228290	            0.006349	           -0.434495	           -0.136642	            3.408217	           -0.256205	           -4.405365	          694.596697	           55.180161	           -0.266181	            0.005505	           -0.692644	            0.016214	           -2.556463	           -0.203091
            3.757000	          -33.180549	          820.301017	          -61.425907	           -0.228002	            0.006349	           -0.434417	           -0.134871	            3.334323	           -0.249681	           -4.588009	          693.306138	           55.410281	           -0.265912	            0.005505	           -0.692516	            0.017200	           -2.599064	           -0.207722
            3.757500	          -33.271803	          817.957515	          -61.435728	           -0.227928	            0.006348	           -0.434355	           -0.132593	            3.259679	           -0.244830	           -4.958739	          692.199271	           55.594211	           -0.266022	            0.005505	           -0.692587	            0.018396	           -2.567965	           -0.206247
            3.758000	          -33.179354	          816.875016	          -61.211302	           -0.227849	            0.006347	           -0.434073	           -0.131412	            3.235360	           -0.242437	           -5.560662	          690.172970	           55.164889	           -0.265753	            0.005506	           -0.692497	            0.019766	           -2.453357	           -0.196095
            3.758500	          -33.454143	          814.171280	          -61.313934	           -0.227594	            0.006349	           -0.434373	           -0.131324	            3.196027	           -0.240688	           -5.979673	          689.435052	           55.115513	           -0.265559	            0.005507	           -0.692618	            0.020008	           -2.306889	           -0.184420
